<svg id="instagram" xmlns="http://www.w3.org/2000/svg" width="48.49" height="48.49" viewBox="0 0 48.49 48.49">
  <path id="패스_26" d="M215.575,211.287A4.287,4.287,0,1,1,211.287,207,4.287,4.287,0,0,1,215.575,211.287Zm0,0" transform="translate(-187.042 -187.042)" fill="#fefefe"/>
  <path id="패스_27" d="M156.73,138.544a4.4,4.4,0,0,0-2.521-2.521,7.348,7.348,0,0,0-2.466-.457c-1.4-.064-1.821-.078-5.368-.078s-3.967.013-5.368.077a7.353,7.353,0,0,0-2.466.457,4.4,4.4,0,0,0-2.521,2.521,7.352,7.352,0,0,0-.457,2.467c-.064,1.4-.078,1.821-.078,5.368s.014,3.967.078,5.368a7.349,7.349,0,0,0,.457,2.466,4.4,4.4,0,0,0,2.521,2.521,7.341,7.341,0,0,0,2.467.457c1.4.064,1.82.077,5.368.077s3.968-.013,5.368-.077a7.341,7.341,0,0,0,2.467-.457,4.4,4.4,0,0,0,2.521-2.521,7.356,7.356,0,0,0,.457-2.466c.064-1.4.077-1.821.077-5.368s-.013-3.967-.077-5.368A7.34,7.34,0,0,0,156.73,138.544ZM146.375,153.2a6.821,6.821,0,1,1,6.821-6.821A6.821,6.821,0,0,1,146.375,153.2Zm7.091-12.318a1.594,1.594,0,1,1,1.594-1.594A1.594,1.594,0,0,1,153.466,140.882Zm0,0" transform="translate(-122.13 -122.133)" fill="#fefefe"/>
  <path id="패스_28" d="M24.245,0A24.245,24.245,0,1,0,48.49,24.245,24.248,24.248,0,0,0,24.245,0ZM38.083,29.985a10.214,10.214,0,0,1-.647,3.379,7.119,7.119,0,0,1-4.072,4.072,10.221,10.221,0,0,1-3.379.647c-1.485.068-1.959.084-5.74.084s-4.255-.016-5.74-.084a10.221,10.221,0,0,1-3.379-.647,7.119,7.119,0,0,1-4.072-4.072,10.212,10.212,0,0,1-.647-3.379c-.068-1.485-.084-1.959-.084-5.74s.016-4.255.084-5.74a10.215,10.215,0,0,1,.647-3.38,7.123,7.123,0,0,1,4.072-4.072,10.224,10.224,0,0,1,3.38-.647c1.485-.068,1.959-.084,5.74-.084s4.255.016,5.74.084a10.226,10.226,0,0,1,3.379.646,7.121,7.121,0,0,1,4.072,4.072,10.213,10.213,0,0,1,.647,3.38c.068,1.485.084,1.959.084,5.74S38.151,28.5,38.083,29.985Zm0,0" fill="#fefefe"/>
</svg>
