<svg xmlns="http://www.w3.org/2000/svg" width="48" height="48" viewBox="0 0 48 48">
  <path id="linkedin" d="M24,0A24,24,0,1,0,46.082,33.416,23.57,23.57,0,0,0,48,24,24,24,0,0,0,24,0ZM17.026,36.281H11.181V18.7h5.845ZM14.1,16.295h-.038a3.046,3.046,0,1,1,.077-6.076,3.048,3.048,0,1,1-.039,6.076Zm24,19.986H32.258V26.874c0-2.364-.846-3.977-2.961-3.977a3.2,3.2,0,0,0-3,2.138,4,4,0,0,0-.192,1.426v9.82H20.261s.077-15.935,0-17.585h5.845v2.49a5.8,5.8,0,0,1,5.268-2.9c3.846,0,6.729,2.513,6.729,7.915Zm0,0" fill="#fefefe"/>
</svg>
